<svg width="48" height="44" viewBox="0 0 48 44" fill="none" xmlns="http://www.w3.org/2000/svg">
<path d="M29.6836 21.7603L23.4682 16.0193L17.2528 21.7603L11.0374 16.0193L6.29302 20.4207L3.35107 17.7033L11.0374 10.6228L17.2528 16.3638L23.4682 10.6228L29.6836 16.3638L35.899 10.6228L43.5853 17.7033L40.6434 20.4207L35.899 16.0193L29.6836 21.7603ZM35.899 27.5013L40.6434 31.9027L43.5853 29.1853L35.899 22.1047L29.6836 27.8457L23.4682 22.1047L17.2528 27.8457L11.0374 22.1047L3.35107 29.1853L6.29302 31.9027L11.0374 27.5013L17.2528 33.2422L23.4682 27.5013L29.6836 33.2422L35.899 27.5013Z" fill="#FF0A6B"/>
</svg>
