<svg width="41" height="49" viewBox="0 0 41 49" fill="none" xmlns="http://www.w3.org/2000/svg">
<g filter="url(#filter0_d_6_174)">
<path d="M27.0653 3.83569C25.314 3.83569 23.5795 4.32651 22.0617 5.30815C21.4613 5.65355 20.8942 6.12619 20.3939 6.63519C19.8935 6.12619 19.3264 5.65355 18.726 5.30815C17.2083 4.32651 15.4737 3.83569 13.7225 3.83569C8.19567 3.83569 3.71533 8.71898 3.71533 14.7428C3.71533 20.7667 8.19567 25.6499 13.7225 25.6499V22.0142C10.0379 22.0142 7.05104 18.7587 7.05104 14.7428C7.05104 10.7269 10.0379 7.4714 13.7225 7.4714C15.3903 7.4714 17.0582 8.18036 18.3091 9.47104C18.4592 9.61647 18.5926 9.78007 18.726 9.94368V40.1928H22.0617V9.94368C22.1952 9.78007 22.3286 9.61647 22.4787 9.47104C25.1473 6.7079 29.3669 6.81697 31.9187 9.74372C34.4539 12.6523 34.3371 17.2515 31.6686 20.0146C30.401 21.3053 28.7832 22.0142 27.0653 22.0142V25.6499C32.5921 25.6499 37.0724 20.7667 37.0724 14.7428C37.0724 8.71898 32.5921 3.83569 27.0653 3.83569Z" fill="#FF0A6B"/>
</g>
<defs>
<filter id="filter0_d_6_174" x="0.715332" y="3.83569" width="39.3572" height="44.3572" filterUnits="userSpaceOnUse" color-interpolation-filters="sRGB">
<feFlood flood-opacity="0" result="BackgroundImageFix"/>
<feColorMatrix in="SourceAlpha" type="matrix" values="0 0 0 0 0 0 0 0 0 0 0 0 0 0 0 0 0 0 127 0" result="hardAlpha"/>
<feOffset dy="5"/>
<feGaussianBlur stdDeviation="1.5"/>
<feComposite in2="hardAlpha" operator="out"/>
<feColorMatrix type="matrix" values="0 0 0 0 0 0 0 0 0 0 0 0 0 0 0 0 0 0 0.0509804 0"/>
<feBlend mode="normal" in2="BackgroundImageFix" result="effect1_dropShadow_6_174"/>
<feBlend mode="normal" in="SourceGraphic" in2="effect1_dropShadow_6_174" result="shape"/>
</filter>
</defs>
</svg>
