<svg width="49" height="45" viewBox="0 0 49 45" fill="none" xmlns="http://www.w3.org/2000/svg">
<g filter="url(#filter0_d_6_198)">
<path d="M24.3839 6.9795C13.0107 6.9795 3.70532 13.6216 3.70532 21.8222C3.70532 25.7556 7.11728 29.0024 11.4805 29.2436H11.9767C16.5449 29.2436 20.2482 25.9209 20.2482 21.8222C20.2482 17.7235 16.5449 14.4009 11.9767 14.4009H11.4805C14.9544 11.4509 19.6071 9.85528 24.3839 9.94804C28.044 9.91094 31.6213 10.8201 34.7231 12.5455L37.3079 10.2263C33.4411 8.0556 28.9538 6.92384 24.3839 6.9795ZM11.9767 18.1115C14.2608 18.1115 16.1124 19.7729 16.1124 21.8222C16.1124 23.8817 14.21 25.5329 11.9767 25.5329C9.82617 25.5329 8.04781 24.0857 7.84103 22.1933C7.84103 21.9521 7.84103 21.6924 7.84103 21.4512C8.04781 19.5402 9.84685 18.1115 11.9767 18.1115ZM37.2873 14.4009H36.791C32.2228 14.4009 28.5196 17.7235 28.5196 21.8222C28.5196 25.9209 32.2228 29.2436 36.791 29.2436H37.2873C33.8133 32.1936 29.1606 33.7892 24.3839 33.6964C20.7238 33.7335 17.1464 32.8244 14.0446 31.0989L11.4805 33.3996C15.3473 35.5703 19.8139 36.665 24.3839 36.665C35.7571 36.665 45.0624 30.0228 45.0624 21.8222C45.0624 17.8889 41.6504 14.6421 37.2873 14.4009ZM36.791 25.5329C34.5069 25.5329 32.6553 23.8716 32.6553 21.8222C32.6553 19.7628 34.5577 18.1115 36.791 18.1115C38.9416 18.1115 40.7199 19.5587 40.9267 21.4512C40.9267 21.6924 40.9267 21.9521 40.9267 22.1933C40.7199 24.1043 38.9209 25.5329 36.791 25.5329Z" fill="#FF0A6B"/>
</g>
<defs>
<filter id="filter0_d_6_198" x="0.705322" y="6.97754" width="47.3572" height="37.6875" filterUnits="userSpaceOnUse" color-interpolation-filters="sRGB">
<feFlood flood-opacity="0" result="BackgroundImageFix"/>
<feColorMatrix in="SourceAlpha" type="matrix" values="0 0 0 0 0 0 0 0 0 0 0 0 0 0 0 0 0 0 127 0" result="hardAlpha"/>
<feOffset dy="5"/>
<feGaussianBlur stdDeviation="1.5"/>
<feComposite in2="hardAlpha" operator="out"/>
<feColorMatrix type="matrix" values="0 0 0 0 0 0 0 0 0 0 0 0 0 0 0 0 0 0 0.0509804 0"/>
<feBlend mode="normal" in2="BackgroundImageFix" result="effect1_dropShadow_6_198"/>
<feBlend mode="normal" in="SourceGraphic" in2="effect1_dropShadow_6_198" result="shape"/>
</filter>
</defs>
</svg>
