<svg width="50" height="44" viewBox="0 0 50 44" fill="none" xmlns="http://www.w3.org/2000/svg">
<path d="M30.5975 23.8333C28.8934 23.8333 27.2136 24.1817 25.7286 24.8417V11C25.7286 7.96243 22.4587 5.5 18.4251 5.5C16.5993 5.5 14.8952 6.03167 13.5562 6.93C12.2172 6.01333 10.4888 5.5 8.68726 5.5V9.16667C10.0318 9.16667 11.1217 9.98748 11.1217 11V29.3333H15.9907V11C15.9907 9.98748 17.0806 9.16667 18.4251 9.16667C19.7697 9.16667 20.8596 9.98748 20.8596 11V31.1667C20.8596 33.1917 18.6797 34.8333 15.9907 34.8333V38.5C18.7903 38.5 21.4682 37.5833 23.2941 35.97C26.8241 39.0317 32.9589 39.3617 37.0245 36.6667C41.0901 34.0633 41.5526 29.425 37.9983 26.3633C36.1481 24.75 33.4458 23.8333 30.5975 23.8333ZM30.5975 34.8333C27.9084 34.8333 25.7286 33.1917 25.7286 31.1667C25.7286 29.1416 27.9084 27.5 30.5975 27.5C33.2865 27.5 35.4664 29.1416 35.4664 31.1667C35.4664 33.1917 33.2865 34.8333 30.5975 34.8333Z" fill="#FF0A6B"/>
</svg>
