<svg width="152" height="65" viewBox="0 0 152 65" fill="none" xmlns="http://www.w3.org/2000/svg">
<path d="M36.9394 35.1838C36.9394 38.996 33.8317 42.0851 29.9965 42.0851C26.1613 42.0851 23.0536 38.996 23.0536 35.1838C23.0536 31.3717 26.1613 28.2826 29.9965 28.2826C33.8317 28.2826 36.9394 31.3717 36.9394 35.1838ZM60 35.1838C60 21.3604 50.5215 9.76239 37.681 6.3855C37.2713 10.2398 33.9871 13.2446 29.9965 13.2446C26.0059 13.2446 22.7287 10.2398 22.3119 6.3855C9.47852 9.75537 0 21.3533 0 35.1838C0 51.6541 13.4338 65.0002 29.9965 65.0002C46.5591 65.0002 59.9929 51.6471 59.9929 35.1838" fill="white"/>
<path d="M29.9963 10.4405C32.8756 10.4405 35.2173 8.10631 35.2173 5.22033C35.2173 2.33436 32.8827 0.00012207 29.9963 0.00012207C27.1099 0.00012207 24.7753 2.33436 24.7753 5.22033C24.7753 8.10631 27.1099 10.4405 29.9963 10.4405Z" fill="#FF0A6B"/>
<path d="M90.4375 33.5C90.4375 35.1875 90.1328 36.6458 89.5234 37.875C88.9141 39.1042 88.0781 40.0521 87.0156 40.7188C85.9531 41.3854 84.7396 41.7187 83.375 41.7187C82.0104 41.7187 80.7969 41.3854 79.7344 40.7188C78.6719 40.0521 77.8359 39.1042 77.2266 37.875C76.6172 36.6458 76.3125 35.1875 76.3125 33.5C76.3125 31.8125 76.6172 30.3542 77.2266 29.125C77.8359 27.8958 78.6719 26.9479 79.7344 26.2812C80.7969 25.6146 82.0104 25.2812 83.375 25.2812C84.7396 25.2812 85.9531 25.6146 87.0156 26.2812C88.0781 26.9479 88.9141 27.8958 89.5234 29.125C90.1328 30.3542 90.4375 31.8125 90.4375 33.5ZM88.5625 33.5C88.5625 32.1146 88.3307 30.9453 87.8672 29.9922C87.4089 29.0391 86.7865 28.3177 86 27.8281C85.2188 27.3385 84.3438 27.0937 83.375 27.0937C82.4063 27.0937 81.5286 27.3385 80.7422 27.8281C79.9609 28.3177 79.3385 29.0391 78.875 29.9922C78.4167 30.9453 78.1875 32.1146 78.1875 33.5C78.1875 34.8854 78.4167 36.0547 78.875 37.0078C79.3385 37.9609 79.9609 38.6823 80.7422 39.1719C81.5286 39.6615 82.4063 39.9062 83.375 39.9062C84.3438 39.9062 85.2188 39.6615 86 39.1719C86.7865 38.6823 87.4089 37.9609 87.8672 37.0078C88.3307 36.0547 88.5625 34.8854 88.5625 33.5ZM93.4753 41.5V25.5H98.8816C100.132 25.5 101.158 25.7135 101.96 26.1406C102.762 26.5625 103.356 27.1432 103.741 27.8828C104.126 28.6224 104.319 29.4635 104.319 30.4062C104.319 31.349 104.126 32.1849 103.741 32.9141C103.356 33.6432 102.764 34.2161 101.968 34.6328C101.171 35.0443 100.152 35.25 98.9128 35.25H94.5378V33.5H98.8503C99.7045 33.5 100.392 33.375 100.913 33.125C101.439 32.875 101.819 32.5208 102.053 32.0625C102.293 31.599 102.413 31.0469 102.413 30.4062C102.413 29.7656 102.293 29.2057 102.053 28.7266C101.814 28.2474 101.431 27.8776 100.905 27.6172C100.379 27.3516 99.6836 27.2187 98.8191 27.2187H95.4128V41.5H93.4753ZM101.007 34.3125L104.944 41.5H102.694L98.8191 34.3125H101.007ZM107.328 41.5V25.5H112.921C114.036 25.5 114.955 25.6927 115.679 26.0781C116.403 26.4583 116.942 26.9714 117.296 27.6172C117.65 28.2578 117.828 28.9687 117.828 29.75C117.828 30.4375 117.705 31.0052 117.46 31.4531C117.221 31.901 116.903 32.2552 116.507 32.5156C116.117 32.776 115.692 32.9687 115.234 33.0937V33.25C115.723 33.2812 116.216 33.4531 116.71 33.7656C117.205 34.0781 117.619 34.526 117.953 35.1094C118.286 35.6927 118.453 36.4062 118.453 37.25C118.453 38.0521 118.27 38.7734 117.906 39.4141C117.541 40.0547 116.966 40.5625 116.179 40.9375C115.393 41.3125 114.369 41.5 113.109 41.5H107.328ZM109.265 39.7812H113.109C114.374 39.7812 115.273 39.5365 115.804 39.0469C116.341 38.5521 116.609 37.9531 116.609 37.25C116.609 36.7083 116.471 36.2083 116.195 35.75C115.919 35.2865 115.525 34.9167 115.015 34.6406C114.505 34.3594 113.9 34.2188 113.203 34.2188H109.265V39.7812ZM109.265 32.5312H112.859C113.442 32.5312 113.968 32.4167 114.437 32.1875C114.911 31.9583 115.286 31.6354 115.562 31.2187C115.843 30.8021 115.984 30.3125 115.984 29.75C115.984 29.0469 115.739 28.4505 115.249 27.9609C114.76 27.4661 113.984 27.2187 112.921 27.2187H109.265V32.5312ZM123.354 25.5V41.5H121.416V25.5H123.354Z" fill="white"/>
<path d="M137.955 29.5V31.0625H131.736V29.5H137.955ZM133.548 26.625H135.392V38.0625C135.392 38.5833 135.468 38.974 135.619 39.2344C135.775 39.4896 135.973 39.6615 136.213 39.75C136.457 39.8333 136.715 39.875 136.986 39.875C137.189 39.875 137.356 39.8646 137.486 39.8437C137.616 39.8177 137.72 39.7969 137.798 39.7812L138.173 41.4375C138.048 41.4844 137.874 41.5313 137.65 41.5781C137.426 41.6302 137.142 41.6563 136.798 41.6563C136.278 41.6563 135.767 41.5443 135.267 41.3203C134.772 41.0964 134.361 40.7552 134.033 40.2969C133.71 39.8385 133.548 39.2604 133.548 38.5625V26.625ZM150.541 29.5L146.103 41.5H144.228L139.791 29.5H141.791L145.103 39.0625H145.228L148.541 29.5H150.541Z" fill="#FF0A6B"/>
</svg>
