<svg width="50" height="44" viewBox="0 0 50 44" fill="none" xmlns="http://www.w3.org/2000/svg">
<path d="M37.5136 26.185L34.3753 28.7682L37.2484 31.1148H33.7343C31.2931 31.1148 29.3142 29.4859 29.3142 27.4766V9.28547C29.3142 6.27146 26.3457 3.82812 22.6839 3.82813C21.0263 3.82813 19.4793 4.35567 18.2637 5.24703C15.7442 3.39154 11.9429 3.39154 9.42335 5.24703C8.2078 4.33748 6.63864 3.82813 5.00317 3.82813V7.46635C6.22377 7.46635 7.21326 8.2808 7.21326 9.28547V27.4766H11.6334V9.28547C11.6334 8.2808 12.6229 7.46635 13.8435 7.46635C15.0641 7.46635 16.0536 8.2808 16.0536 9.28547V27.4766H20.4738V9.28547C20.4738 8.2808 21.4633 7.46635 22.6839 7.46635C23.9045 7.46635 24.894 8.2808 24.894 9.28547V27.4766C24.894 31.4953 28.8519 34.7531 33.7343 34.7531H37.2484L34.3753 37.0997L37.5136 39.6829L45.6909 32.934L37.5136 26.185Z" fill="#FF0A6B"/>
</svg>
