<svg width="22" height="18" viewBox="0 0 22 18" fill="none" xmlns="http://www.w3.org/2000/svg">
<path d="M20.7376 3.84799C20.5178 2.91073 19.8451 2.17053 18.974 1.9075C17.4105 1.5 11.1562 1.5 11.1562 1.5C11.1562 1.5 4.90203 1.5 3.33847 1.94631C2.46743 2.20934 1.79473 2.94954 1.57493 3.88681C1.28878 5.58042 1.14881 7.29849 1.15677 9.01941C1.14657 10.7533 1.28655 12.4844 1.57493 14.1908C1.81705 15.0982 2.48582 15.8047 3.33847 16.0537C4.90203 16.5 11.1562 16.5 11.1562 16.5C11.1562 16.5 17.4105 16.5 18.974 16.0537C19.8451 15.7907 20.5178 15.0505 20.7376 14.1132C21.0215 12.4323 21.1615 10.7274 21.1557 9.01941C21.1659 7.28553 21.0259 5.55437 20.7376 3.84799Z" stroke="#FF0A6B" stroke-width="1.5" stroke-linecap="round" stroke-linejoin="round"/>
<path d="M9.12158 11.9817L14.3288 9.02039L9.12158 6.05908V11.9817Z" stroke="#FF0A6B" stroke-width="1.5" stroke-linecap="round" stroke-linejoin="round"/>
</svg>
