<svg width="19" height="20" viewBox="0 0 19 20" fill="none" xmlns="http://www.w3.org/2000/svg">
<path d="M18.6221 10.1601C18.6221 11.7809 17.7854 13.2362 16.384 14.0529L7.31569 19.3377C5.90338 20.1608 4.21375 20.1664 2.79593 19.3529C1.37811 18.5393 0.531654 17.0784 0.531654 15.4449V4.87526C0.531654 3.24178 1.37811 1.78086 2.79593 0.967283C4.21374 0.153695 5.90337 0.159358 7.31569 0.982426L16.384 6.26723C17.7854 7.08394 18.6221 8.5392 18.6221 10.1601ZM3.53902 15.4449C3.53902 16.2297 4.06684 16.6173 4.29378 16.7475C4.52071 16.8777 5.1218 17.1379 5.80037 16.7425L14.8687 11.4577C15.542 11.0653 15.6147 10.4195 15.6147 10.1601C15.6147 9.90063 15.542 9.25486 14.8687 8.86246L5.80037 3.57765C5.1218 3.1822 4.52071 3.44239 4.29378 3.5726C4.06684 3.70282 3.53902 4.09043 3.53902 4.87526V15.4449Z" fill="white"/>
</svg>
