<svg width="31" height="22" viewBox="0 0 31 22" fill="none" xmlns="http://www.w3.org/2000/svg">
<path d="M30.3253 3.54764C29.9697 2.20467 29.1901 1.06796 27.8544 0.710445C25.4337 0.0595858 15.5 0 15.5 0C15.5 0 5.56632 0.0595858 3.14559 0.710446C1.80985 1.06796 1.03485 2.20467 0.674706 3.54764C0.0273529 5.98149 0 11.0004 0 11.0004C0 11.0004 0.0273529 16.0194 0.674706 18.4533C1.03029 19.7962 1.80985 20.9329 3.14559 21.2904C5.56632 21.9413 15.5 22.0009 15.5 22.0009C15.5 22.0009 25.4337 21.9413 27.8544 21.2904C29.1901 20.9329 29.9697 19.7962 30.3253 18.4533C30.9726 16.0194 31 11.0004 31 11.0004C31 11.0004 30.9726 5.98149 30.3253 3.54764Z" fill="#FF0000"/>
<path d="M20.5145 11.0005L12.3086 6.41699V15.584" fill="#FAFAFA"/>
</svg>
