<svg width="18" height="19" viewBox="0 0 18 19" fill="none" xmlns="http://www.w3.org/2000/svg">
<path d="M5.00025 1.5H13.0002C15.2094 1.5 17.0002 3.29086 17.0002 5.5V13.5C17.0002 15.7091 15.2094 17.5 13.0002 17.5H5.00025C2.79111 17.5 1.00024 15.7091 1.00024 13.5L1.00024 5.5C1.00024 3.29086 2.79111 1.5 5.00025 1.5Z" stroke="#FF0A6B" stroke-width="1.5" stroke-linecap="round" stroke-linejoin="round"/>
<path d="M12.4014 8.96761C12.6169 10.4206 11.8763 11.848 10.5642 12.5084C9.25212 13.1688 7.66444 12.9133 6.62578 11.8747C5.58711 10.836 5.33163 9.24832 5.99203 7.93625C6.65244 6.62418 8.07982 5.88353 9.53283 6.099C11.0165 6.31901 12.1814 7.48395 12.4014 8.96761Z" stroke="#FF0A6B" stroke-width="1.5" stroke-linecap="round" stroke-linejoin="round"/>
</svg>
