<svg width="40" height="49" viewBox="0 0 40 49" fill="none" xmlns="http://www.w3.org/2000/svg">
<g filter="url(#filter0_d_6_190)">
<path d="M33.173 30.9558C33.173 33.9677 30.9328 36.4094 28.1694 36.4094C25.4675 36.2639 23.2993 33.9007 23.1658 30.9558C23.4327 28.0291 23.9998 25.1387 24.8337 22.3392C25.7343 19.2306 26.2847 16.0312 26.5015 12.7773C26.3848 7.81452 22.7155 3.81524 18.1623 3.68799C13.609 3.81524 9.93976 7.81452 9.823 12.7773C10.0732 15.5586 10.6569 18.2854 11.4909 20.9576L11.8411 22.2301C8.32193 21.0121 4.58594 23.139 3.46848 26.9565C2.31766 30.7922 4.28573 34.8824 7.8049 36.1003C11.3241 37.3183 15.0601 35.1914 16.1775 31.3557C16.3943 30.6468 16.4944 29.8833 16.4944 29.1379C16.2276 25.9931 15.6605 22.8845 14.6765 19.9032C13.9426 17.5946 13.4256 15.2132 13.1587 12.7773C13.2921 9.83233 15.4604 7.46912 18.1623 7.3237C20.8642 7.46912 23.0324 9.83233 23.1658 12.7773C22.899 15.704 22.3319 18.5944 21.498 21.3939C20.5973 24.5024 20.0469 27.7018 19.8301 30.9558C19.9469 35.9185 23.6162 39.9178 28.1694 40.0451C32.775 40.0451 36.5087 35.9757 36.5087 30.9558H33.173ZM9.823 32.7736C7.98074 32.7736 6.4873 31.1459 6.4873 29.1379C6.4873 27.13 7.98074 25.5022 9.823 25.5022C11.6653 25.5022 13.1587 27.13 13.1587 29.1379C13.1587 31.1459 11.6653 32.7736 9.823 32.7736Z" fill="#FF0A6B"/>
</g>
<defs>
<filter id="filter0_d_6_190" x="0.139404" y="3.68799" width="39.3691" height="44.3572" filterUnits="userSpaceOnUse" color-interpolation-filters="sRGB">
<feFlood flood-opacity="0" result="BackgroundImageFix"/>
<feColorMatrix in="SourceAlpha" type="matrix" values="0 0 0 0 0 0 0 0 0 0 0 0 0 0 0 0 0 0 127 0" result="hardAlpha"/>
<feOffset dy="5"/>
<feGaussianBlur stdDeviation="1.5"/>
<feComposite in2="hardAlpha" operator="out"/>
<feColorMatrix type="matrix" values="0 0 0 0 0 0 0 0 0 0 0 0 0 0 0 0 0 0 0.0509804 0"/>
<feBlend mode="normal" in2="BackgroundImageFix" result="effect1_dropShadow_6_190"/>
<feBlend mode="normal" in="SourceGraphic" in2="effect1_dropShadow_6_190" result="shape"/>
</filter>
</defs>
</svg>
