<svg width="40" height="44" viewBox="0 0 40 44" fill="none" xmlns="http://www.w3.org/2000/svg">
<path d="M32.906 29.2332V32.8874H21.2831V29.0688C26.2643 28.0639 29.5187 22.8385 28.6055 17.3572C27.6923 11.876 22.9435 8.2949 17.9623 9.2998C12.981 10.323 9.7266 15.5301 10.6398 21.0114C11.3206 25.104 14.2429 28.3197 17.9623 29.0688V32.8874H6.33936V29.2332H11.1878C8.61412 26.6571 7.16956 23.0029 7.16956 19.1843C7.16956 11.6163 12.745 5.4812 19.6227 5.4812C26.5003 5.4812 32.0758 11.6163 32.0758 19.1843C32.0758 23.0029 30.6312 26.6571 28.0576 29.2332H32.906ZM32.906 34.7145H6.33936V38.3686H32.906V34.7145Z" fill="#FF0A6B"/>
</svg>
