<svg width="118" height="31" viewBox="0 0 118 31" fill="none" xmlns="http://www.w3.org/2000/svg">
<path d="M11.7934 16.918C11.9691 16.4057 12.1885 15.9093 12.4488 15.4351C11.1314 14.4369 10.2793 12.8621 10.2793 11.093C10.2793 8.08388 12.7421 5.63697 15.769 5.63697C18.7959 5.63697 21.2573 8.08519 21.2573 11.093C21.2573 12.8621 20.4051 14.4369 19.0879 15.4351C19.3481 15.9093 19.5675 16.4057 19.7432 16.918C21.6167 15.6492 22.8507 13.5123 22.8507 11.0943C22.8507 7.21177 19.6731 4.05298 15.7676 4.05298C11.8621 4.05298 8.68457 7.21177 8.68457 11.0943C8.6859 13.5123 9.91988 15.6492 11.7934 16.918Z" fill="#B31983"/>
<path d="M16.092 20.5667C15.7603 23.2631 13.4456 25.3581 10.6446 25.3581C7.61766 25.3581 5.15624 22.9098 5.15624 19.9021C5.15624 16.893 7.61899 14.4461 10.6446 14.4461C11.4029 14.4461 12.1256 14.5998 12.7837 14.8769C13.0783 14.4212 13.4139 13.9917 13.7838 13.5924C12.8365 13.1249 11.7716 12.8608 10.6446 12.8608C6.73906 12.8608 3.56152 16.0196 3.56152 19.9021C3.56152 23.7846 6.73906 26.9434 10.6446 26.9434C14.3955 26.9434 17.4727 24.0289 17.7104 20.3592C17.1754 20.4774 16.635 20.547 16.092 20.5667Z" fill="#73308A"/>
<path d="M20.8928 12.8623C19.7658 12.8623 18.7009 13.1263 17.7548 13.5939C18.1248 13.9932 18.459 14.4227 18.755 14.8784C19.4129 14.6013 20.1357 14.4476 20.8941 14.4476C23.921 14.4476 26.3824 16.8959 26.3824 19.9036C26.3824 22.9127 23.9197 25.3595 20.8941 25.3595C18.0931 25.3595 15.7783 23.2633 15.4467 20.5682C14.9037 20.5485 14.3632 20.4789 13.8281 20.3607C14.066 24.0304 17.1431 26.9449 20.8941 26.9449C24.7996 26.9449 27.9771 23.7861 27.9771 19.9036C27.9745 16.0198 24.7982 12.8623 20.8928 12.8623Z" fill="#F93549"/>
<path d="M10.6465 17.935C10.9398 17.935 11.216 18.0034 11.467 18.1177C11.685 17.0525 12.0827 16.024 12.6469 15.0941C13.1872 14.205 13.8835 13.409 14.6841 12.7352C14.3129 12.4923 14.0288 12.1297 13.8874 11.7029C13.6628 11.892 13.4436 12.089 13.2334 12.2992C11.6572 13.866 10.6359 15.8349 10.2581 17.9731C10.3836 17.9482 10.5131 17.935 10.6465 17.935Z" fill="#EE4043"/>
<path d="M28.4014 12.299C26.376 10.2855 23.6833 9.177 20.8202 9.177C19.5823 9.177 18.3773 9.38452 17.245 9.7825C17.5595 10.1305 17.7524 10.5902 17.7524 11.0946C17.7524 11.1169 17.7511 11.1379 17.7498 11.1603C18.7116 10.8227 19.7435 10.6375 20.8202 10.6375C25.9228 10.6375 30.0741 14.7644 30.0741 19.8368C30.0741 24.9092 25.9228 29.0359 20.8202 29.0359C16.3056 29.0359 12.5389 25.8049 11.729 21.5481C11.4198 21.7504 11.0485 21.87 10.6508 21.87C10.5266 21.87 10.4051 21.8568 10.2861 21.8345C10.6825 23.9202 11.6946 25.8404 13.2378 27.3745C15.2632 29.3879 17.9559 30.4965 20.8202 30.4965C23.6846 30.4965 26.3773 29.3879 28.4014 27.3745C30.4269 25.361 31.542 22.6843 31.542 19.8368C31.542 16.9893 30.4269 14.3125 28.4014 12.299Z" fill="#F93549"/>
<path d="M16.855 12.7351C17.6557 13.4075 18.352 14.2048 18.8923 15.094C19.4565 16.0226 19.8542 17.051 20.0722 18.1162C20.3232 18.0019 20.5993 17.9336 20.8913 17.9336C21.0247 17.9336 21.1542 17.9467 21.2798 17.9717C20.9032 15.8334 19.8806 13.8646 18.3044 12.2977C18.0943 12.0889 17.8737 11.8905 17.6491 11.7014C17.509 12.1296 17.225 12.4921 16.855 12.7351Z" fill="#6D2C90"/>
<path d="M20.8912 21.8698C20.4922 21.8698 20.1222 21.7516 19.813 21.5494C19.0031 25.8062 15.2363 29.0372 10.723 29.0372C5.62047 29.0372 1.4692 24.9104 1.4692 19.838C1.4692 14.7656 5.62047 10.6387 10.723 10.6387C11.7985 10.6387 12.8317 10.824 13.7922 11.1615C13.7909 11.1392 13.7896 11.1181 13.7896 11.0959C13.7896 10.5915 13.9824 10.1331 14.2982 9.78372C13.1646 9.38706 11.9597 9.17822 10.723 9.17822C7.85861 9.17822 5.16597 10.2867 3.14054 12.3003C1.11511 14.3124 0 16.9892 0 19.8367C0 22.6842 1.11511 25.361 3.14054 27.3744C5.16597 29.3879 7.85861 30.4964 10.723 30.4964C13.5874 30.4964 16.28 29.3879 18.3055 27.3744C19.8487 25.8403 20.8621 23.9214 21.2571 21.8344C21.1382 21.8567 21.0167 21.8698 20.8912 21.8698Z" fill="#73308A"/>
<path d="M18.9222 20.0066C17.889 20.3809 16.8334 20.574 15.7685 20.574C14.7036 20.574 13.6465 20.3809 12.6134 20.0066C12.5896 20.4584 12.4113 20.8709 12.1311 21.1926C13.2819 21.6038 14.508 21.8192 15.7672 21.8192C17.0263 21.8192 18.2524 21.6038 19.4031 21.1926C19.1244 20.8709 18.9473 20.4584 18.9222 20.0066Z" fill="#B3258E"/>
<path d="M23.3496 3.62201C21.3255 1.60853 18.6328 0.5 15.7684 0.5C12.904 0.5 10.2113 1.60853 8.18594 3.62201C6.16052 5.63549 5.04541 8.31225 5.04541 11.1597C5.04541 14.0072 6.16052 16.684 8.18594 18.6975C8.37884 18.8892 8.57835 19.0692 8.78314 19.2438C8.9549 18.7658 9.30636 18.3731 9.75821 18.1459C7.77505 16.4568 6.5146 13.9521 6.5146 11.1597C6.5146 6.08731 10.6659 1.96053 15.7684 1.96053C20.871 1.96053 25.0223 6.08731 25.0223 11.1597C25.0223 13.9534 23.7618 16.4581 21.7787 18.1459C22.2305 18.3718 22.5819 18.7658 22.7537 19.2438C22.9585 19.0692 23.158 18.888 23.3509 18.6975C25.3763 16.684 26.4915 14.0072 26.4915 11.1597C26.4915 8.31225 25.375 5.63549 23.3496 3.62201Z" fill="#B31983"/>
<path d="M12.6137 20.0073C12.5582 21.0422 11.7008 21.8696 10.6452 21.8696C9.55385 21.8696 8.66594 20.9871 8.66594 19.9022C8.66594 18.8172 9.55385 17.9347 10.6452 17.9347C10.9385 17.9347 11.2146 18.0029 11.4656 18.1172C11.5634 17.6392 11.6995 17.169 11.8686 16.7118C11.488 16.5674 11.0759 16.4873 10.6452 16.4873C8.75051 16.4873 7.20996 18.0187 7.20996 19.9022C7.20996 21.7856 8.75051 23.317 10.6452 23.317C12.368 23.317 13.7989 22.0496 14.0433 20.4026C13.5637 20.3093 13.0867 20.178 12.6137 20.0073Z" fill="#73308A"/>
<path d="M20.8924 16.4873C20.4617 16.4873 20.0495 16.5674 19.669 16.7118C19.8381 17.169 19.9742 17.6392 20.072 18.1172C20.323 18.0029 20.5991 17.9347 20.8911 17.9347C21.9824 17.9347 22.8703 18.8172 22.8703 19.9022C22.8703 20.9871 21.9824 21.8697 20.8911 21.8697C19.8355 21.8697 18.9793 21.0422 18.9225 20.0073C18.4508 20.178 17.9739 20.3093 17.4929 20.4039C17.7374 22.0497 19.1683 23.3184 20.8911 23.3184C22.7857 23.3184 24.3263 21.7869 24.3263 19.9035C24.3263 18.0201 22.7857 16.4873 20.8924 16.4873Z" fill="#F93549"/>
<path d="M13.6311 13.7632C13.9561 13.3954 14.3075 13.0513 14.6841 12.7348C14.1464 12.3828 13.7897 11.7799 13.7897 11.093C13.7897 10.0081 14.6775 9.12546 15.7688 9.12546C16.8602 9.12546 17.7481 10.0081 17.7481 11.093C17.7481 11.7786 17.3913 12.3814 16.8549 12.7334C17.2314 13.05 17.5829 13.3941 17.9079 13.7619C18.698 13.1354 19.2053 12.1726 19.2053 11.0917C19.2053 9.20821 17.6648 7.67676 15.7701 7.67676C13.8755 7.67676 12.335 9.20821 12.335 11.0917C12.3337 12.1739 12.841 13.138 13.6311 13.7632Z" fill="#B31983"/>
<path d="M41.0187 9.12378C44.1878 9.12378 46.0085 10.6814 46.0085 13.4053C46.0085 16.2364 44.1878 17.8847 41.0187 17.8847H38.1198V21.6646H35.9954V9.12378H41.0187ZM38.1183 15.9842H40.929C42.8727 15.9842 43.9721 15.1608 43.9721 13.4582C43.9721 11.8099 42.8727 11.0228 40.929 11.0228H38.1183V15.9842Z" fill="#1F2B7D"/>
<path d="M55.9699 17.6873H48.7296C49.0545 19.1573 50.1888 20.0698 51.7013 20.0698C52.7461 20.0698 53.4811 19.677 54.1841 18.9594L55.5006 20.1242C54.5638 21.1455 53.1971 21.7362 51.5388 21.7362C48.5884 21.7362 46.6416 19.7843 46.6416 16.9169C46.6416 14.0328 48.64 12.0793 51.4857 12.0627C54.8523 12.0627 56.222 14.2473 55.9699 17.6873ZM54.1689 16.1826C54.0976 14.6416 53.071 13.711 51.504 13.711C49.9915 13.711 48.93 14.6598 48.6946 16.1826H54.1689Z" fill="#1F2B7D"/>
<path d="M59.3804 14.0328C60.0288 12.7426 61.1814 12.0627 62.6923 12.0627V14.0328C60.7668 13.9256 59.5413 15.054 59.3804 16.6842V21.6652H57.3091V12.1323H59.3804V14.0328Z" fill="#1F2B7D"/>
<path d="M70.4215 13.0114L69.4451 14.5342C68.5993 14.0145 67.7535 13.6927 66.9077 13.6927C66.0983 13.6927 65.5046 13.9616 65.5046 14.643C65.5046 16.3969 70.5992 15.4482 70.581 18.9078C70.581 20.8597 68.8346 21.7375 66.9062 21.7375C65.503 21.7375 63.7886 21.2722 62.835 20.411L64.0104 18.9426C64.8394 19.6768 65.954 20.124 66.9988 20.124C67.8795 20.124 68.5644 19.8188 68.5644 19.1027C68.5644 17.1508 63.5199 18.2431 63.5396 14.8031C63.5396 12.8679 65.2312 12.043 67.0671 12.043C68.2774 12.0445 69.5574 12.4025 70.4215 13.0114Z" fill="#1F2B7D"/>
<path d="M91.6111 15.7347V21.6645H89.5399V16.3073C89.5399 14.8736 88.6743 13.9958 87.2348 13.9958C85.6495 14.014 84.6594 15.1077 84.5151 16.5944V21.6645H82.4453V12.1316H84.5151V13.9596C85.2014 12.6347 86.4238 12.0605 88.0456 12.0605C90.2763 12.0621 91.6111 13.4581 91.6111 15.7347Z" fill="#1F2B7D"/>
<path d="M99.2301 20.5003C98.5469 21.3434 97.4474 21.7543 96.0615 21.7543C93.9886 21.7543 92.6948 20.4807 92.6948 18.7977C92.6948 17.0604 94.0099 15.9499 96.3136 15.9318H99.2125V15.6448C99.2125 14.4453 98.4375 13.7276 96.9255 13.7276C96.0068 13.7276 95.2698 14.0494 94.3168 14.6945L93.2525 13.2623C94.5838 12.4752 95.5572 12.0627 97.376 12.0627C99.8438 12.0627 101.231 13.3167 101.248 15.4136L101.267 21.6652H99.232V20.5003H99.2301ZM99.2125 17.8807V17.4366H96.6186C95.2689 17.4366 94.6366 17.7946 94.6366 18.7101C94.6366 19.5697 95.3402 20.1242 96.4907 20.1242C97.9721 20.1242 99.3126 19.3613 99.2125 17.8807Z" fill="#1F2B7D"/>
<path d="M104.824 14.0328C105.472 12.7426 106.625 12.0627 108.137 12.0627V14.0328C106.211 13.9256 104.986 15.054 104.824 16.6842V21.6652H102.753V12.1323H104.824V14.0328Z" fill="#1F2B7D"/>
<path d="M117.705 17.6873H110.465C110.789 19.1573 111.926 20.0698 113.437 20.0698C114.482 20.0698 115.218 19.677 115.918 18.9594L117.236 20.1242C116.301 21.1455 114.932 21.7362 113.275 21.7362C110.321 21.7362 108.375 19.7843 108.375 16.9169C108.375 14.0328 110.376 12.0793 113.221 12.0627C116.588 12.0627 117.957 14.2473 117.705 17.6873ZM115.905 16.1826C115.832 14.6416 114.806 13.711 113.24 13.711C111.728 13.711 110.664 14.6598 110.431 16.1826H115.905Z" fill="#1F2B7D"/>
<path d="M76.3246 21.7355C73.5701 21.7355 71.3271 19.566 71.3271 16.8981C71.3271 14.23 73.5685 12.0605 76.3246 12.0605C79.0792 12.0605 81.322 14.23 81.322 16.8981C81.322 19.566 79.0792 21.7355 76.3246 21.7355ZM76.3246 14.0215C74.6846 14.0215 73.3514 15.3117 73.3514 16.8995C73.3514 18.4874 74.6846 19.7776 76.3246 19.7776C77.9646 19.7776 79.2979 18.4874 79.2979 16.8995C79.2979 15.3117 77.9646 14.0215 76.3246 14.0215Z" fill="#1F2B7D"/>
</svg>
