<svg width="180" height="71" viewBox="0 0 180 71" fill="none" xmlns="http://www.w3.org/2000/svg">
<path d="M28.9912 17.8715C31.7696 17.8715 34.0291 15.6188 34.0291 12.8337C34.0291 10.0485 31.7764 7.79578 28.9912 7.79578C26.2061 7.79578 23.9534 10.0485 23.9534 12.8337C23.9534 15.6188 26.2061 17.8715 28.9912 17.8715Z" fill="#FF0A6B"/>
<path d="M35.7016 41.9837C35.7016 45.6936 32.698 48.6998 28.9912 48.6998C25.2845 48.6998 22.2809 45.6936 22.2809 41.9837C22.2809 38.2739 25.2845 35.2677 28.9912 35.2677C32.698 35.2677 35.7016 38.2739 35.7016 41.9837ZM57.9898 41.9837C57.9898 28.5312 48.8288 17.2444 36.4184 13.9581C36.0224 17.709 32.8482 20.6332 28.9912 20.6332C25.1343 20.6332 21.9669 17.709 21.5641 13.9581C9.16055 17.2376 -0.000488281 28.5243 -0.000488281 41.9837C-0.000488281 58.012 12.9833 71 28.9912 71C44.9992 71 57.983 58.0052 57.983 41.9837M98.0813 35.4658H98.5182V13.2886C95.4941 13.7327 92.6202 14.6482 89.9715 15.9463C86.6402 17.3606 85.1316 18.9115 85.1316 18.9115V14.8122H62.3246V68.964H85.1316V35.4795H98.0745V35.4658L98.0813 35.4658ZM133.565 41.8129C133.565 45.5228 130.561 48.529 126.855 48.529C123.148 48.529 120.144 45.5228 120.144 41.8129C120.144 38.1031 123.148 35.0969 126.855 35.0969C130.561 35.0969 133.565 38.1031 133.565 41.8129ZM153.157 42.0042C153.157 27.1237 141.251 15.0581 126.561 15.0581C125.51 15.0581 124.479 15.1264 123.462 15.2426V0H102.901V68.9503H123.462C125.257 68.9845 125.51 68.9503 126.561 68.9503C141.251 68.9503 153.157 56.8847 153.157 42.0042ZM179.629 14.8327H157.737V68.964H179.629V14.8395V14.8327Z" fill="#231F20"/>
</svg>
