<svg width="116" height="99" viewBox="0 0 116 99" fill="none" xmlns="http://www.w3.org/2000/svg">
<rect x="60.4644" y="28.3711" width="38.7406" height="38.7406" transform="rotate(-45 60.4644 28.3711)" fill="#ED1D6C"/>
<path d="M89.4128 17.2487L89.9601 16.7016L88.1838 14.9253L87.6366 15.4725H82.8058V20.3078L82.6084 20.5052H77.7732V25.336L77.5757 25.5333H72.745V30.3686L72.5476 30.566H67.7123V35.3968L67.6136 35.5H62.7783V40.3308L62.5854 40.5281H57.7502V45.3634L57.5528 45.5608H52.7176V50.3916L52.5247 50.589H47.6893V55.4242L47.03 56.0836L48.8063 57.8598L49.4656 57.196V52.3652H54.3009L54.4938 52.1678V47.337H59.3291L59.5264 47.1396V42.3044H64.3572L64.5546 42.107V37.2762H69.3898L69.4885 37.173V32.3422H74.3238L74.5212 32.1449V27.3096H79.3519L79.5494 27.1122V22.2814H84.3846L84.5775 22.0841V17.2487H89.4128Z" fill="white"/>
<path d="M68.4974 52.9123C77.6121 52.9123 84.9968 45.5158 84.9968 36.3969C84.9968 27.2736 77.6075 19.8816 68.4974 19.8816C59.3874 19.8816 51.998 27.278 51.998 36.3969C51.998 45.5158 59.3874 52.9123 68.4974 52.9123Z" fill="#5054A4"/>
<path d="M30.9146 93.281C32.8996 92.3301 34.3649 91.2626 35.315 90.0785C36.265 88.8943 36.7399 87.6383 36.7399 86.3062C36.7399 85.4001 36.5383 84.6063 36.1394 83.9289C35.7407 83.2516 35.1805 82.6954 34.4635 82.2513C33.7466 81.8073 32.9086 81.4754 31.9452 81.2511C30.9863 81.0313 29.9465 80.9192 28.8263 80.9192C26.4603 80.9192 24.408 81.444 22.6693 82.4891C20.9262 83.5341 19.4877 84.9112 18.3495 86.6247L20.1554 88.3022C20.8947 87.7325 21.5445 87.3109 22.1002 87.0373C22.6603 86.7636 23.2429 86.6246 23.8568 86.6246C24.4259 86.6246 24.9233 86.7682 25.3445 87.0508C25.7657 87.3333 25.9764 87.8492 25.9764 88.5892C25.9764 89.2441 25.7791 89.9349 25.3893 90.666C24.9995 91.3971 24.4394 92.1776 23.7134 93.0119C22.983 93.8461 22.0868 94.7567 21.0203 95.7389C19.9537 96.7213 18.7483 97.8023 17.395 98.9865H48.0099V93.281H30.9146Z" fill="#ED1D6C"/>
<path d="M45.9577 91.0966C45.0705 90.7916 44.6268 90.3117 44.6268 89.6568C44.6268 88.9795 45.0705 88.4996 45.9577 88.2169C46.845 87.9344 47.9294 87.7909 49.2199 87.7909C49.8518 87.7909 50.4478 87.8267 51.0079 87.903C51.568 87.9748 52.052 88.0869 52.4643 88.2349C52.8765 88.3829 53.2036 88.5713 53.4456 88.8046C53.6876 89.0378 53.8086 89.3204 53.8086 89.6613C53.8086 90.0021 53.6876 90.2847 53.4456 90.518C53.2036 90.7513 52.8765 90.9441 52.4643 91.1055C52.052 91.2625 51.568 91.3792 51.0079 91.4554C50.4478 91.5272 49.8518 91.5676 49.2199 91.5676C47.9294 91.5542 46.8405 91.4017 45.9577 91.0966ZM53.235 98.3181C54.5032 97.8651 55.61 97.2237 56.56 96.4029C57.51 95.5775 58.2628 94.5953 58.8229 93.456C59.3831 92.3167 59.6609 91.0472 59.6609 89.6523C59.6609 88.2573 59.3831 86.9924 58.8229 85.8487C58.2628 84.7094 57.51 83.7271 56.56 82.9016C55.61 82.0764 54.5032 81.4395 53.235 80.9865C51.9668 80.5334 50.627 80.3047 49.2155 80.3047C47.8039 80.3047 46.4596 80.5334 45.196 80.9865C43.9277 81.4395 42.8209 82.0809 41.8709 82.9016C40.921 83.7271 40.1682 84.7094 39.608 85.8487C39.0478 86.988 38.77 88.2573 38.77 89.6523C38.77 91.0472 39.0478 92.3121 39.608 93.456C40.1682 94.5953 40.921 95.5775 41.8709 96.4029C42.8209 97.2282 43.9277 97.8651 45.196 98.3181C46.4596 98.7712 47.8039 98.9999 49.2155 98.9999C50.6315 98.9999 51.9713 98.7757 53.235 98.3181Z" fill="#ED1D6C"/>
<rect x="41.3374" y="96.5959" width="49.851" height="2.34139" fill="#ED1D6C"/>
<path d="M93.1796 74.532C92.8704 74.2405 92.718 73.8458 92.718 73.3523C92.718 72.8904 92.8704 72.5046 93.1796 72.1951C93.4887 71.8857 93.8741 71.7331 94.3357 71.7331C94.7659 71.7331 95.1468 71.8902 95.4694 72.1951C95.792 72.5046 95.9533 72.8904 95.9533 73.3523C95.9533 73.8458 95.792 74.2405 95.4694 74.532C95.1468 74.828 94.7659 74.9716 94.3357 74.9716C93.8741 74.9716 93.4887 74.828 93.1796 74.532ZM110.046 70.9886C109.692 70.1543 109.374 69.0598 109.096 67.7007C108.693 65.6958 108.164 63.8253 107.501 62.0984C106.838 60.3715 105.919 58.8734 104.75 57.604C103.576 56.3392 102.066 55.3434 100.215 54.6167C98.3642 53.8901 96.034 53.5268 93.2288 53.5268C92.0548 53.5268 90.7821 53.5985 89.4109 53.7377C88.0397 53.8767 86.7491 54.1145 85.5482 54.4553V63.2557C86.6595 62.8834 87.8291 62.6995 89.0659 62.6995C90.0517 62.6995 90.8629 62.8071 91.4946 63.0225C92.1264 63.2377 92.6418 63.5563 93.0451 63.9734C93.444 64.3905 93.7621 64.9063 93.9951 65.5253C94.2281 66.1443 94.4477 66.8664 94.6673 67.7007C93.4932 67.1131 92.2743 66.8216 91.0107 66.8216C89.9307 66.8216 88.9449 67.0055 88.0487 67.3778C87.1525 67.7501 86.3907 68.2434 85.7589 68.858C85.127 69.477 84.643 70.208 84.3025 71.0558C83.962 71.9036 83.7961 72.8231 83.7961 73.8099C83.7961 74.7967 83.9753 75.7162 84.3294 76.5639C84.6834 77.4117 85.1762 78.1563 85.8127 78.7887C86.4445 79.4212 87.2018 79.9236 88.08 80.2913C88.9583 80.6636 89.9396 80.8475 91.0197 80.8475C92.4984 80.8475 93.8338 80.4753 95.0212 79.7351C96.2088 78.9951 97.1096 78.0351 97.7279 76.8645C98.6196 78.2236 99.7846 79.2238 101.223 79.8742C102.657 80.5246 104.575 80.8475 106.981 80.8475C108.37 80.8475 109.495 80.7533 110.36 80.5694C111.225 80.3855 112.103 80.1657 112.999 79.919V72.0471C112.659 72.1727 112.336 72.231 112.027 72.231C111.055 72.24 110.4 71.8228 110.046 70.9886ZM69.4252 78.5958C68.9771 78.1339 68.753 77.5911 68.753 76.9766C68.753 76.3576 68.9771 75.8194 69.4252 75.3573C69.8732 74.8954 70.42 74.6622 71.0698 74.6622C71.6882 74.6622 72.2259 74.8954 72.6874 75.3573C73.149 75.8194 73.382 76.3621 73.382 76.9766C73.382 77.5956 73.149 78.1339 72.6874 78.5958C72.2259 79.0578 71.6837 79.2911 71.0698 79.2911C70.42 79.2911 69.8688 79.0578 69.4252 78.5958ZM70.3931 64.8435C69.0802 65.5567 67.9778 66.5435 67.0861 67.8084L65.6521 64.2424H55.4755V96.6586H69.3535V88.4638C70.9264 89.6075 72.7905 90.1772 74.9504 90.1772C76.7384 90.1772 78.3829 89.8453 79.8796 89.1814C81.3763 88.5176 82.6713 87.5936 83.7647 86.405C84.8581 85.2164 85.714 83.8214 86.3324 82.2155C86.9507 80.6098 87.26 78.865 87.26 76.9811C87.26 75.0972 86.9507 73.3523 86.3324 71.7466C85.714 70.1408 84.8581 68.7458 83.7647 67.5572C82.6713 66.3685 81.3718 65.4445 79.8796 64.7762C78.3829 64.1124 76.7428 63.7804 74.9504 63.7804C73.2252 63.776 71.7061 64.1348 70.3931 64.8435ZM41.5706 66.8799C41.1226 66.4314 40.8985 65.8842 40.8985 65.2337C40.8985 64.5833 41.1226 64.0361 41.5706 63.5876C42.0188 63.139 42.5655 62.9148 43.2152 62.9148C43.865 62.9148 44.4117 63.139 44.8598 63.5876C45.308 64.0361 45.532 64.5833 45.532 65.2337C45.532 65.8842 45.308 66.4314 44.8598 66.8799C44.4117 67.3284 43.865 67.5527 43.2152 67.5527C42.5655 67.5527 42.0188 67.3284 41.5706 66.8799ZM37.336 52.6387C35.5481 53.3519 34.0111 54.3207 32.734 55.5587C31.4524 56.7922 30.4485 58.2455 29.7272 59.9095C29.0012 61.5781 28.6382 63.3544 28.6382 65.2338C28.6382 67.1176 29.0012 68.8939 29.7272 70.558C30.453 72.2266 31.4524 73.6754 32.734 74.9088C34.0111 76.1423 35.5481 77.1156 37.336 77.8288C39.124 78.5376 41.0822 78.8919 43.2107 78.8919C45.3393 78.8919 47.2975 78.5376 49.0855 77.8288C50.8734 77.1202 52.4105 76.1469 53.6876 74.9088C54.9647 73.6754 55.9684 72.2221 56.6944 70.558C57.4203 68.8894 57.7833 67.1176 57.7833 65.2338C57.7833 63.3498 57.4203 61.5736 56.6944 59.9095C55.9684 58.241 54.9647 56.7922 53.6876 55.5587C52.406 54.3252 50.8734 53.3519 49.0855 52.6387C47.2975 51.9301 45.3393 51.5756 43.2107 51.5756C41.0867 51.5711 39.1284 51.93 37.336 52.6387ZM21.5625 53.8632C20.6977 52.9975 20.2675 51.8717 20.2675 50.4812C20.2675 49.0907 20.6977 47.9649 21.5625 47.0992C22.4274 46.2335 23.597 45.8028 25.0803 45.8028C26.1602 45.8028 27.0161 46.0181 27.6479 46.4533C28.2798 46.8839 28.9026 47.4267 29.521 48.0725L34.1948 45.1076C32.5906 41.4654 30.3994 38.6711 27.6255 36.7244C24.8472 34.7777 21.5312 33.8088 17.6774 33.8088C15.0873 33.8088 12.7034 34.2485 10.5301 35.1276C8.35675 36.0067 6.48813 37.1954 4.93317 38.6935C3.37381 40.1916 2.16385 41.9499 1.29901 43.9728C0.434204 45.9957 0.00390625 48.1621 0.00390625 50.4767C0.00390625 52.7912 0.434143 54.9621 1.29901 56.985C2.16385 59.0079 3.37381 60.7663 4.93317 62.2644C6.48813 63.7625 8.35675 64.9511 10.5301 65.8303C12.7034 66.7095 15.0873 67.149 17.6774 67.149C21.5312 67.149 24.8472 66.1757 27.6255 64.2336C30.3994 62.2868 32.5906 59.4969 34.1948 55.8502L29.521 52.8854C28.9026 53.5043 28.2798 54.0381 27.6479 54.4821C27.0161 54.9307 26.1602 55.155 25.0803 55.155C23.597 55.1595 22.4229 54.7289 21.5625 53.8632Z" fill="black"/>
<path d="M87.4905 93.2812C89.4776 92.3304 90.9443 91.2628 91.8952 90.0787C92.8462 88.8945 93.3217 87.6386 93.3217 86.3064C93.3217 85.4003 93.1198 84.6065 92.7205 83.9292C92.3213 83.2518 91.7606 82.6957 91.043 82.2516C90.3254 81.8075 89.4865 81.4756 88.5222 81.2513C87.5623 81.0316 86.5217 80.9194 85.4003 80.9194C83.032 80.9194 80.9777 81.4442 79.2374 82.4893C77.4925 83.5344 76.0527 84.9114 74.9134 86.6249L76.7211 88.3025C77.4611 87.7328 78.1115 87.3112 78.6677 87.0375C79.2284 86.7639 79.8115 86.6249 80.426 86.6249C80.9956 86.6249 81.4935 86.7684 81.9152 87.051C82.3368 87.3336 82.5476 87.8494 82.5476 88.5895C82.5476 89.2444 82.3503 89.9351 81.9601 90.6663C81.5698 91.3974 81.0091 92.1778 80.2825 93.0121C79.5514 93.8464 78.6543 94.757 77.5867 95.7392C76.5192 96.7216 75.3126 97.8026 73.958 98.9867H93.9182V93.2812H87.4905Z" fill="#ED1D6C"/>
<path d="M106.392 93.2812C108.379 92.3304 109.846 91.2628 110.797 90.0787C111.748 88.8945 112.223 87.6386 112.223 86.3064C112.223 85.4003 112.021 84.6065 111.622 83.9292C111.223 83.2518 110.662 82.6957 109.945 82.2516C109.227 81.8075 108.388 81.4756 107.424 81.2513C106.464 81.0316 105.423 80.9194 104.302 80.9194C101.934 80.9194 99.8793 81.4442 98.139 82.4893C96.3943 83.5344 94.9544 84.9114 93.815 86.6249L95.6227 88.3025C96.3628 87.7328 97.0132 87.3112 97.5693 87.0375C98.13 86.7639 98.7131 86.6249 99.3276 86.6249C99.8972 86.6249 100.395 86.7684 100.817 87.051C101.238 87.3336 101.449 87.8494 101.449 88.5895C101.449 89.2444 101.252 89.9351 100.862 90.6663C100.471 91.3974 99.9108 92.1778 99.1841 93.0121C98.453 93.8464 97.5559 94.757 96.4883 95.7392C95.4208 96.7216 94.2143 97.8026 92.8596 98.9867H112.82V93.2812H106.392Z" fill="#ED1D6C"/>
</svg>
