<svg width="60" height="65" viewBox="0 0 60 65" fill="none" xmlns="http://www.w3.org/2000/svg">
<path d="M36.9394 35.1838C36.9394 38.996 33.8317 42.0851 29.9965 42.0851C26.1613 42.0851 23.0536 38.996 23.0536 35.1838C23.0536 31.3717 26.1613 28.2826 29.9965 28.2826C33.8317 28.2826 36.9394 31.3717 36.9394 35.1838ZM60 35.1838C60 21.3604 50.5215 9.76239 37.681 6.3855C37.2713 10.2398 33.9871 13.2446 29.9965 13.2446C26.0059 13.2446 22.7287 10.2398 22.3119 6.3855C9.47852 9.75537 0 21.3533 0 35.1838C0 51.6541 13.4338 65.0002 29.9965 65.0002C46.5591 65.0002 59.9929 51.6471 59.9929 35.1838" fill="white"/>
<path d="M29.9963 10.4405C32.8756 10.4405 35.2173 8.10631 35.2173 5.22033C35.2173 2.33436 32.8827 0.00012207 29.9963 0.00012207C27.1099 0.00012207 24.7753 2.33436 24.7753 5.22033C24.7753 8.10631 27.1099 10.4405 29.9963 10.4405Z" fill="#FF0A6B"/>
</svg>
