<svg width="44" height="44" viewBox="0 0 44 44" fill="none" xmlns="http://www.w3.org/2000/svg">
<path d="M37.0214 20.0823H33.1881C33.3989 14.975 34.5872 9.94029 36.6572 5.21461L33.1881 3.83325C30.9072 8.99516 29.6039 14.4842 29.3547 20.0823H14.0214C13.7722 14.4842 12.4689 8.99516 10.1881 3.83325L6.62307 5.21461C8.7314 9.92212 9.9389 14.9568 10.1881 20.0823H6.35474V23.7175H10.1881C9.97724 28.8249 8.7889 33.8595 6.7189 38.5852L10.1881 39.9666C12.4689 34.8047 13.7722 29.3156 14.0214 23.7175H29.3547C29.6039 29.3156 30.9072 34.8047 33.1881 39.9666L36.7531 38.5852C34.6447 33.8777 33.4372 28.843 33.1881 23.7175H37.0214V20.0823Z" fill="#FF0A6B"/>
</svg>
