<svg width="15" height="16" viewBox="0 0 15 16" fill="none" xmlns="http://www.w3.org/2000/svg">
<path d="M14.0298 8.12136C14.0298 9.3006 13.4211 10.3594 12.4015 10.9536L5.80392 14.7985C4.77641 15.3973 3.54713 15.4014 2.51561 14.8095C1.48408 14.2176 0.868251 13.1547 0.868251 11.9663V4.27644C0.868251 3.08801 1.48408 2.02513 2.51561 1.43322C3.54712 0.841303 4.7764 0.845424 5.80392 1.44424L12.4015 5.28916C13.4211 5.88335 14.0298 6.94211 14.0298 8.12136ZM3.05624 11.9663C3.05624 12.5373 3.44025 12.8193 3.60536 12.914C3.77046 13.0087 4.20777 13.198 4.70146 12.9103L11.299 9.06542C11.7889 8.77993 11.8418 8.31011 11.8418 8.12136C11.8418 7.9326 11.7889 7.46278 11.299 7.17729L4.70146 3.33237C4.20777 3.04467 3.77046 3.23396 3.60536 3.3287C3.44025 3.42344 3.05624 3.70544 3.05624 4.27644V11.9663Z" fill="#FF0A6B"/>
</svg>
