<svg width="19" height="23" viewBox="0 0 19 23" fill="none" xmlns="http://www.w3.org/2000/svg">
<path d="M9.76267 1.65413C10.8393 1.6377 11.9078 1.64591 12.9762 1.6377C13.0419 2.89516 13.494 4.17728 14.4145 5.0649C15.335 5.97717 16.6335 6.39633 17.8992 6.53604V9.84818C16.7157 9.80709 15.524 9.56053 14.4473 9.05097C13.9789 8.83728 13.5433 8.56606 13.1159 8.28663C13.1077 10.6865 13.1241 13.0864 13.0995 15.478C13.0337 16.6286 12.6557 17.771 11.9899 18.7162C10.9133 20.2942 9.04765 21.3215 7.13269 21.3544C5.95741 21.4201 4.78214 21.0996 3.77946 20.5078C2.11928 19.5298 0.952222 17.7381 0.77963 15.815C0.763192 15.404 0.754973 14.9931 0.771411 14.5904C0.919348 13.0288 1.69191 11.533 2.89184 10.5139C4.25614 9.3304 6.16288 8.76331 7.94634 9.10028C7.96278 10.3166 7.91347 11.533 7.91347 12.7494C7.09981 12.4864 6.14644 12.5604 5.43142 13.0535C4.91364 13.3904 4.51914 13.9082 4.31367 14.4918C4.14108 14.9109 4.19039 15.3712 4.19861 15.815C4.39586 17.1628 5.69442 18.297 7.07516 18.1737C7.99565 18.1655 8.87505 17.6313 9.35174 16.8505C9.50789 16.5793 9.68049 16.2999 9.68871 15.9793C9.77089 14.5082 9.73802 13.0453 9.74624 11.5741C9.75445 8.26197 9.73802 4.95805 9.76267 1.65413Z" stroke="#FF0A6B" stroke-width="1.5" stroke-linecap="round" stroke-linejoin="round"/>
</svg>
