<svg width="48" height="49" viewBox="0 0 48 49" fill="none" xmlns="http://www.w3.org/2000/svg">
<g filter="url(#filter0_d_6_182)">
<path d="M38.0001 35.3001C41.1686 32.8171 41.1686 28.0884 41.1686 25.9341C41.1686 21.9007 37.3858 18.6311 32.7194 18.6311C31.2408 18.6311 29.7622 18.9962 28.4948 19.6535V11.3281C28.4948 8.30308 25.6577 5.85083 22.1579 5.85083C20.5737 5.85083 19.0951 6.3803 17.9333 7.27491C15.5253 5.41265 11.8921 5.41265 9.48412 7.27491C8.32235 6.36204 6.82262 5.85083 5.25952 5.85083V9.50233C6.42611 9.50233 7.37182 10.3197 7.37182 11.3281V29.5856H11.5964V11.3281C11.5964 10.3197 12.5421 9.50233 13.7087 9.50233C14.8753 9.50233 15.821 10.3197 15.821 11.3281V29.5856H20.0456V11.3281C20.0456 10.3197 20.9913 9.50233 22.1579 9.50233C23.3245 9.50233 24.2702 10.3197 24.2702 11.3281V25.9341C24.2702 28.0884 24.2702 32.8171 27.4387 35.3001C25.7911 36.0487 24.0167 36.5964 22.1579 36.8886V40.54C24.8828 40.54 30.2691 38.2396 32.7194 37.1259C35.1697 38.2396 40.556 40.54 43.2809 40.54V36.8886C41.4221 36.5964 39.6477 36.0487 38.0001 35.3001ZM32.7194 22.2826C35.0526 22.2826 36.944 23.9174 36.944 25.9341C36.944 31.2652 35.8033 33.2371 32.7194 33.2371C29.6354 33.2371 28.4948 31.2652 28.4948 25.9341C28.4948 23.9174 30.3862 22.2826 32.7194 22.2826Z" fill="#FF0A6B"/>
</g>
<defs>
<filter id="filter0_d_6_182" x="2.25952" y="5.85083" width="44.0212" height="42.6892" filterUnits="userSpaceOnUse" color-interpolation-filters="sRGB">
<feFlood flood-opacity="0" result="BackgroundImageFix"/>
<feColorMatrix in="SourceAlpha" type="matrix" values="0 0 0 0 0 0 0 0 0 0 0 0 0 0 0 0 0 0 127 0" result="hardAlpha"/>
<feOffset dy="5"/>
<feGaussianBlur stdDeviation="1.5"/>
<feComposite in2="hardAlpha" operator="out"/>
<feColorMatrix type="matrix" values="0 0 0 0 0 0 0 0 0 0 0 0 0 0 0 0 0 0 0.0509804 0"/>
<feBlend mode="normal" in2="BackgroundImageFix" result="effect1_dropShadow_6_182"/>
<feBlend mode="normal" in="SourceGraphic" in2="effect1_dropShadow_6_182" result="shape"/>
</filter>
</defs>
</svg>
